<svg xmlns="http://www.w3.org/2000/svg" version="1.1" xmlns:xlink="http://www.w3.org/1999/xlink" xmlns:svgjs="http://svgjs.dev/svgjs" width="1000" height="1000" viewBox="0 0 1000 1000"><g transform="matrix(1,0,0,1,-0.14221556886212738,-0.14221556886229791)"><svg viewBox="0 0 334 334" data-background-color="#b19dd0" preserveAspectRatio="xMidYMid meet" height="1000" width="1000" xmlns="http://www.w3.org/2000/svg" xmlns:xlink="http://www.w3.org/1999/xlink"><g id="tight-bounds" transform="matrix(1,0,0,1,0.04749999999998522,0.04750000000001364)"><svg viewBox="0 0 333.90454557049503 333.90454557049503" height="333.90454557049503" width="333.90454557049503"><g><svg></svg></g><g><svg viewBox="0 0 333.90454557049503 333.90454557049503" height="333.90454557049503" width="333.90454557049503"><g><path d="M0 166.952c0-92.205 74.747-166.952 166.952-166.952 92.205 0 166.952 74.747 166.953 166.952 0 92.205-74.747 166.952-166.953 166.953-92.205 0-166.952-74.747-166.952-166.953zM166.952 327.306c88.561 0 160.354-71.793 160.354-160.354 0-88.561-71.793-160.354-160.354-160.354-88.561 0-160.354 71.793-160.354 160.354 0 88.561 71.793 160.354 160.354 160.354z" data-fill-palette-color="tertiary" fill="#000000" stroke="transparent"></path><ellipse rx="160.27418187383762" ry="160.27418187383762" cx="166.95227278524752" cy="166.95227278524752" fill="#000000" stroke="transparent" stroke-width="0" fill-opacity="1" data-fill-palette-color="tertiary"></ellipse></g><g transform="matrix(1,0,0,1,80.17565919401277,71.17305217166896)"><svg viewBox="0 0 173.5532271824695 191.55844122715712" height="191.55844122715712" width="173.5532271824695"><g><svg viewBox="0 0 173.5532271824695 191.55844122715712" height="191.55844122715712" width="173.5532271824695"><g><svg viewBox="0 0 213.1584412271571 235.27248325353665" height="191.55844122715712" width="173.5532271824695"><g transform="matrix(1,0,0,1,0,145.40783331459804)"><svg viewBox="0 0 213.1584412271571 89.86464993893861" height="89.86464993893861" width="213.1584412271571"><g id="textblocktransform"><svg viewBox="0 0 213.1584412271571 89.86464993893861" height="89.86464993893861" width="213.1584412271571" id="textblock"><g><svg viewBox="0 0 213.1584412271571 89.86464993893861" height="89.86464993893861" width="213.1584412271571"><g transform="matrix(1,0,0,1,0,0)"><svg width="213.1584412271571" viewBox="1.7000000476837158 -34.900001525878906 83.85000610351562 35.35000228881836" height="89.86464993893861" data-palette-color="#01ff70"><path d="M6.4-31.2Q5.9-32.85 4.65-32.85L4.65-32.85Q4.5-32.85 4.1-32.75L4.1-32.75Q3.55-32.55 3.25-32.15L3.25-32.15 1.7-33.25Q1.85-33.65 2.33-34.02 2.8-34.4 3.5-34.65L3.5-34.65Q4.35-34.9 4.85-34.9L4.85-34.9Q6.1-34.9 7.03-34.1 7.95-33.3 8.4-31.8L8.4-31.8 17.15-4.7 17.7-2.05 18.3-4.7 27.8-34.3 30.3-34.3 39.8-4.7 40.4-1.9 40.95-4.7 50.45-34.3 52.75-34.3 41.65-0.05 39.15-0.05 29.05-31 19-0.05 16.5-0.05 6.4-31.2ZM55.55 0.45Q54.15 0.45 53.1-0.38 52.05-1.2 51.65-2.65L51.65-2.65 53.6-2.95Q53.8-2.4 54.35-1.98 54.9-1.55 55.6-1.55L55.6-1.55Q56.2-1.55 56.72-1.98 57.25-2.4 57.45-2.9L57.45-2.9 70.7-34.6 71.1-34.6 85.55-0.05 83.3-0.05 78.45-11.7 63.25-11.7 59.35-2.1Q58.85-0.85 57.85-0.2 56.85 0.45 55.55 0.45L55.55 0.45ZM64.1-13.7L77.55-13.7 71.8-28.1 70.85-31.25 69.9-28 64.1-13.7Z" opacity="1" transform="matrix(1,0,0,1,0,0)" fill="#01ff70" class="undefined-text-0" data-fill-palette-color="quaternary" id="text-0"></path></svg></g></svg></g></svg></g></svg></g><g transform="matrix(1,0,0,1,52.97172769170298,0)"><svg viewBox="0 0 107.21498584375115 124.19294621561318" height="124.19294621561318" width="107.21498584375115"><g><svg xmlns="http://www.w3.org/2000/svg" xmlns:xlink="http://www.w3.org/1999/xlink" version="1.1" x="0" y="0" viewBox="9.63800048828125 3.246999979019165 80.7239990234375 93.50699615478516" enable-background="new 0 0 100 100" xml:space="preserve" height="124.19294621561318" width="107.21498584375115" class="icon-icon-0" data-fill-palette-color="quaternary" id="icon-0"><g fill="#01ff70" data-fill-palette-color="quaternary"><g fill="#01ff70" data-fill-palette-color="quaternary"><polygon points="36.703,11.011 9.638,26.636 9.638,38.757 36.703,23.131 63.767,38.757 63.767,26.636   " fill="#01ff70" data-fill-palette-color="quaternary"></polygon></g><g fill="#01ff70" data-fill-palette-color="quaternary"><polygon points="63.298,89.092 36.233,73.467 36.233,61.348 63.298,76.973 90.362,61.348 90.362,73.467   " fill="#01ff70" data-fill-palette-color="quaternary"></polygon></g><g fill="#01ff70" data-fill-palette-color="quaternary"><polygon points="9.638,42.012 36.703,26.386 47.198,32.446 20.134,48.072 20.134,79.324 9.638,73.264   " fill="#01ff70" data-fill-palette-color="quaternary"></polygon></g><g fill="#01ff70" data-fill-palette-color="quaternary"><polygon points="77.083,18.872 50.018,3.247 39.522,9.307 66.586,24.932 66.586,56.184 77.083,50.124   " fill="#01ff70" data-fill-palette-color="quaternary"></polygon></g><g fill="#01ff70" data-fill-palette-color="quaternary"><polygon points="23.01,81.127 23.011,49.876 33.507,43.816 33.507,75.068 60.571,90.693 50.075,96.754   " fill="#01ff70" data-fill-palette-color="quaternary"></polygon></g><g fill="#01ff70" data-fill-palette-color="quaternary"><polygon points="90.362,58.092 90.362,26.84 79.866,20.78 79.866,52.031 52.802,67.658 63.298,73.719   " fill="#01ff70" data-fill-palette-color="quaternary"></polygon></g></g></svg></g></svg></g><g></g></svg></g></svg></g></svg></g></svg></g><defs></defs></svg><rect width="333.90454557049503" height="333.90454557049503" fill="none" stroke="none" visibility="hidden"></rect></g></svg></g></svg>